<?xml version="1.0" encoding="UTF-8" standalone="no"?>
<!DOCTYPE svg PUBLIC "-//W3C//DTD SVG 1.1//EN" "http://www.w3.org/Graphics/SVG/1.1/DTD/svg11.dtd">
<svg width="100%" height="100%" viewBox="0 0 358 307" version="1.1" xmlns="http://www.w3.org/2000/svg" xmlns:xlink="http://www.w3.org/1999/xlink" xml:space="preserve" xmlns:serif="http://www.serif.com/" style="fill-rule:evenodd;clip-rule:evenodd;stroke-linejoin:round;stroke-miterlimit:2;">
    <g transform="matrix(1,0,0,1,-696.5,-133.5)">
        <g transform="matrix(1.86557,0,0,1.69325,-111.35,-72.074)">
            <g transform="matrix(0.536028,0,0,0.59058,-97.6179,-246.835)">
                <path d="M990.851,746.451C989.281,740.556 992.612,734.466 998.422,732.608L1336.81,624.394C1339.57,623.513 1342.58,624.25 1344.62,626.303C1346.66,628.357 1347.38,631.379 1346.47,634.128L1270.28,866.565C1269.04,870.335 1265.59,872.937 1261.63,873.088L1155.42,877.119C1154.67,877.148 1153.93,877.411 1153.33,877.872L1087.28,928.418C1085.24,929.983 1082.48,930.252 1080.17,929.111C1077.86,927.97 1076.4,925.618 1076.4,923.042L1076.4,883.247C1076.4,882.429 1076.06,881.645 1075.47,881.077C1074.88,880.509 1074.09,880.206 1073.27,880.237L1037.04,881.612C1031.14,881.836 1025.87,877.942 1024.35,872.232L990.851,746.451ZM1081.04,788.048C1081.5,788.9 1081.99,789.74 1082.52,790.569C1093.89,808.513 1121.09,820.864 1152.58,820.315C1184.09,819.765 1210.85,806.454 1221.58,788.103C1222.05,787.286 1222.5,786.459 1222.91,785.623C1223.12,784.936 1223.22,784.204 1223.21,783.446C1223.14,779.605 1220.06,776.54 1216.32,776.605C1214.2,776.642 1212.33,777.675 1211.12,779.262C1210.67,779.844 1210.31,780.501 1210.07,781.211C1208.44,783.948 1206.26,786.521 1203.69,788.906C1192.25,799.542 1173.48,806.241 1152.34,806.61C1131.19,806.979 1112.2,800.94 1100.39,790.71C1097.73,788.403 1095.45,785.894 1093.73,783.2C1093.46,782.53 1093.1,781.912 1092.66,781.366C1091.39,779.801 1089.47,778.819 1087.33,778.856C1083.6,778.922 1080.62,782.093 1080.69,785.933C1080.7,786.673 1080.82,787.383 1081.04,788.048Z" style="fill:rgb(234,224,213);"/>
            </g>
        </g>
    </g>
</svg>
